{
	"asset":{
		"generator":"Khronos glTF Blender I/O v4.5.48",
		"version":"2.0"
	},
	"extensionsUsed":[
		"KHR_materials_transmission",
		"KHR_materials_specular",
		"KHR_lights_punctual"
	],
	"extensionsRequired":[
		"KHR_lights_punctual"
	],
	"extensions":{
		"KHR_lights_punctual":{
			"lights":[
				{
					"color":[
						1,
						1,
						1
					],
					"intensity":1,
					"type":"directional",
					"name":"Sun"
				},
				{
					"color":[
						1,
						1,
						1
					],
					"intensity":1,
					"type":"directional",
					"name":"Sun.001"
				}
			]
		}
	},
	"scene":0,
	"scenes":[
		{
			"name":"Scene",
			"nodes":[
				0,
				1,
				2,
				3,
				4,
				5,
				6,
				7,
				8,
				9
			]
		}
	],
	"nodes":[
		{
			"mesh":0,
			"name":"Cube",
			"rotation":[
				0,
				-0.9456536173820496,
				0,
				0.3251757323741913
			],
			"translation":[
				-10.7083101272583,
				1.0019079446792603,
				-3.2086539268493652
			]
		},
		{
			"mesh":1,
			"name":"Plane",
			"scale":[
				13.392007827758789,
				19.831613540649414,
				14.5211181640625
			],
			"translation":[
				-0.5462278127670288,
				0,
				-6.295636177062988
			]
		},
		{
			"mesh":2,
			"name":"Cube.001",
			"rotation":[
				-0.5084196925163269,
				-0.5084195733070374,
				0.49143609404563904,
				0.4914361834526062
			],
			"translation":[
				3.888704776763916,
				1.0019078254699707,
				0.1269015073776245
			]
		},
		{
			"extensions":{
				"KHR_lights_punctual":{
					"light":0
				}
			},
			"name":"Sun",
			"rotation":[
				-0.45550358295440674,
				0.7329086661338806,
				0.3092735707759857,
				0.3996390104293823
			],
			"translation":[
				-0.5902070999145508,
				12.492979049682617,
				-1.9327244758605957
			]
		},
		{
			"camera":0,
			"name":"Camera",
			"rotation":[
				-0.23282578587532043,
				-0.10228371620178223,
				-0.024631790816783905,
				0.9668110013008118
			],
			"translation":[
				-8.170671463012695,
				10.292768478393555,
				19.314241409301758
			]
		},
		{
			"extensions":{
				"KHR_lights_punctual":{
					"light":1
				}
			},
			"name":"Sun.001",
			"rotation":[
				-0.1158156767487526,
				-0.6453894972801208,
				-0.5382567644119263,
				0.5294702053070068
			],
			"translation":[
				-0.5902070999145508,
				12.492979049682617,
				-1.9327244758605957
			]
		},
		{
			"mesh":3,
			"name":"Cube.002",
			"rotation":[
				0.32517585158348083,
				0,
				-0.9456535577774048,
				2.7556032122788565e-08
			],
			"translation":[
				-9.821699142456055,
				1.0019102096557617,
				5.332729339599609
			]
		},
		{
			"mesh":4,
			"name":"Cube.003",
			"rotation":[
				0.5664221048355103,
				0.5664219856262207,
				0.4232800602912903,
				0.42328014969825745
			],
			"translation":[
				3.243852138519287,
				1.0019080638885498,
				-2.70408296585083
			]
		},
		{
			"mesh":5,
			"name":"Cube.004",
			"rotation":[
				0,
				0.9962466955184937,
				0,
				0.08656048029661179
			],
			"translation":[
				4.157486915588379,
				3.001647472381592,
				-1.314023494720459
			]
		},
		{
			"mesh":6,
			"name":"Cube.005",
			"rotation":[
				0,
				0.5270297527313232,
				0,
				0.8498468399047852
			],
			"translation":[
				-10.92756175994873,
				3.00190806388855,
				-3.834674596786499
			]
		}
	],
	"cameras":[
		{
			"name":"Camera.001",
			"perspective":{
				"aspectRatio":1.7777777777777777,
				"yfov":0.39959652046304894,
				"zfar":1000,
				"znear":0.10000000149011612
			},
			"type":"perspective"
		}
	],
	"materials":[
		{
			"alphaMode":"BLEND",
			"doubleSided":true,
			"extensions":{
				"KHR_materials_transmission":{
					"transmissionFactor":1
				}
			},
			"name":"glass",
			"pbrMetallicRoughness":{
				"baseColorFactor":[
					0.8002194166183472,
					0,
					0.012033658102154732,
					0.8181818127632141
				],
				"metallicFactor":0,
				"roughnessFactor":0
			}
		},
		{
			"doubleSided":true,
			"extensions":{
				"KHR_materials_specular":{
					"specularColorFactor":[
						1.6738485097885132,
						1.6738485097885132,
						1.6738485097885132
					]
				}
			},
			"name":"Material.001",
			"pbrMetallicRoughness":{
				"baseColorFactor":[
					0,
					0,
					0,
					1
				],
				"metallicFactor":0,
				"roughnessFactor":0.5
			}
		},
		{
			"doubleSided":true,
			"name":"Material.002"
		}
	],
	"meshes":[
		{
			"name":"Cube.013",
			"primitives":[
				{
					"attributes":{
						"POSITION":0,
						"NORMAL":1,
						"TEXCOORD_0":2,
						"TANGENT":3
					},
					"indices":4,
					"material":0
				},
				{
					"attributes":{
						"POSITION":5,
						"NORMAL":6,
						"TEXCOORD_0":7,
						"TANGENT":8
					},
					"indices":9,
					"material":1
				}
			]
		},
		{
			"name":"Plane",
			"primitives":[
				{
					"attributes":{
						"POSITION":10,
						"NORMAL":11,
						"TEXCOORD_0":12,
						"TANGENT":13
					},
					"indices":14,
					"material":2
				}
			]
		},
		{
			"name":"Cube.016",
			"primitives":[
				{
					"attributes":{
						"POSITION":15,
						"NORMAL":16,
						"TEXCOORD_0":17,
						"TANGENT":18
					},
					"indices":4,
					"material":0
				},
				{
					"attributes":{
						"POSITION":19,
						"NORMAL":20,
						"TEXCOORD_0":21,
						"TANGENT":22
					},
					"indices":9,
					"material":1
				}
			]
		},
		{
			"name":"Cube.018",
			"primitives":[
				{
					"attributes":{
						"POSITION":23,
						"NORMAL":24,
						"TEXCOORD_0":25,
						"TANGENT":26
					},
					"indices":4,
					"material":0
				},
				{
					"attributes":{
						"POSITION":27,
						"NORMAL":28,
						"TEXCOORD_0":29,
						"TANGENT":30
					},
					"indices":9,
					"material":1
				}
			]
		},
		{
			"name":"Cube.019",
			"primitives":[
				{
					"attributes":{
						"POSITION":31,
						"NORMAL":32,
						"TEXCOORD_0":33,
						"TANGENT":34
					},
					"indices":4,
					"material":0
				},
				{
					"attributes":{
						"POSITION":35,
						"NORMAL":36,
						"TEXCOORD_0":37,
						"TANGENT":38
					},
					"indices":9,
					"material":1
				}
			]
		},
		{
			"name":"Cube.020",
			"primitives":[
				{
					"attributes":{
						"POSITION":39,
						"NORMAL":40,
						"TEXCOORD_0":41,
						"TANGENT":42
					},
					"indices":4,
					"material":0
				},
				{
					"attributes":{
						"POSITION":43,
						"NORMAL":44,
						"TEXCOORD_0":45,
						"TANGENT":46
					},
					"indices":9,
					"material":1
				}
			]
		},
		{
			"name":"Cube.021",
			"primitives":[
				{
					"attributes":{
						"POSITION":47,
						"NORMAL":48,
						"TEXCOORD_0":49,
						"TANGENT":50
					},
					"indices":4,
					"material":0
				},
				{
					"attributes":{
						"POSITION":51,
						"NORMAL":52,
						"TEXCOORD_0":53,
						"TANGENT":54
					},
					"indices":9,
					"material":1
				}
			]
		}
	],
	"accessors":[
		{
			"bufferView":0,
			"componentType":5126,
			"count":768,
			"max":[
				1.0000001192092896,
				1.0000001192092896,
				1.0000001192092896
			],
			"min":[
				-1.0000001192092896,
				-1.0000001192092896,
				-1.0000001192092896
			],
			"type":"VEC3"
		},
		{
			"bufferView":1,
			"componentType":5126,
			"count":768,
			"type":"VEC3"
		},
		{
			"bufferView":2,
			"componentType":5126,
			"count":768,
			"type":"VEC2"
		},
		{
			"bufferView":3,
			"componentType":5126,
			"count":768,
			"type":"VEC4"
		},
		{
			"bufferView":4,
			"componentType":5123,
			"count":2706,
			"type":"SCALAR"
		},
		{
			"bufferView":5,
			"componentType":5126,
			"count":6216,
			"max":[
				1.0000001192092896,
				1.0000001192092896,
				1.0000001192092896
			],
			"min":[
				-1.0000001192092896,
				-1.0000001192092896,
				-1.0000001192092896
			],
			"type":"VEC3"
		},
		{
			"bufferView":6,
			"componentType":5126,
			"count":6216,
			"type":"VEC3"
		},
		{
			"bufferView":7,
			"componentType":5126,
			"count":6216,
			"type":"VEC2"
		},
		{
			"bufferView":8,
			"componentType":5126,
			"count":6216,
			"type":"VEC4"
		},
		{
			"bufferView":9,
			"componentType":5123,
			"count":30240,
			"type":"SCALAR"
		},
		{
			"bufferView":10,
			"componentType":5126,
			"count":4,
			"max":[
				1,
				0,
				1
			],
			"min":[
				-1,
				0,
				-1
			],
			"type":"VEC3"
		},
		{
			"bufferView":11,
			"componentType":5126,
			"count":4,
			"type":"VEC3"
		},
		{
			"bufferView":12,
			"componentType":5126,
			"count":4,
			"type":"VEC2"
		},
		{
			"bufferView":13,
			"componentType":5126,
			"count":4,
			"type":"VEC4"
		},
		{
			"bufferView":14,
			"componentType":5123,
			"count":6,
			"type":"SCALAR"
		},
		{
			"bufferView":15,
			"componentType":5126,
			"count":768,
			"max":[
				1.0000001192092896,
				1.0000001192092896,
				1.0000001192092896
			],
			"min":[
				-1.0000001192092896,
				-1.0000001192092896,
				-1.0000001192092896
			],
			"type":"VEC3"
		},
		{
			"bufferView":16,
			"componentType":5126,
			"count":768,
			"type":"VEC3"
		},
		{
			"bufferView":17,
			"componentType":5126,
			"count":768,
			"type":"VEC2"
		},
		{
			"bufferView":18,
			"componentType":5126,
			"count":768,
			"type":"VEC4"
		},
		{
			"bufferView":19,
			"componentType":5126,
			"count":6216,
			"max":[
				1.0000001192092896,
				1.0000001192092896,
				1.0000001192092896
			],
			"min":[
				-1.0000001192092896,
				-1.0000001192092896,
				-1.0000001192092896
			],
			"type":"VEC3"
		},
		{
			"bufferView":20,
			"componentType":5126,
			"count":6216,
			"type":"VEC3"
		},
		{
			"bufferView":21,
			"componentType":5126,
			"count":6216,
			"type":"VEC2"
		},
		{
			"bufferView":22,
			"componentType":5126,
			"count":6216,
			"type":"VEC4"
		},
		{
			"bufferView":23,
			"componentType":5126,
			"count":768,
			"max":[
				1.0000001192092896,
				1.0000001192092896,
				1.0000001192092896
			],
			"min":[
				-1.0000001192092896,
				-1.0000001192092896,
				-1.0000001192092896
			],
			"type":"VEC3"
		},
		{
			"bufferView":24,
			"componentType":5126,
			"count":768,
			"type":"VEC3"
		},
		{
			"bufferView":25,
			"componentType":5126,
			"count":768,
			"type":"VEC2"
		},
		{
			"bufferView":26,
			"componentType":5126,
			"count":768,
			"type":"VEC4"
		},
		{
			"bufferView":27,
			"componentType":5126,
			"count":6216,
			"max":[
				1.0000001192092896,
				1.0000001192092896,
				1.0000001192092896
			],
			"min":[
				-1.0000001192092896,
				-1.0000001192092896,
				-1.0000001192092896
			],
			"type":"VEC3"
		},
		{
			"bufferView":28,
			"componentType":5126,
			"count":6216,
			"type":"VEC3"
		},
		{
			"bufferView":29,
			"componentType":5126,
			"count":6216,
			"type":"VEC2"
		},
		{
			"bufferView":30,
			"componentType":5126,
			"count":6216,
			"type":"VEC4"
		},
		{
			"bufferView":31,
			"componentType":5126,
			"count":768,
			"max":[
				1.0000001192092896,
				1.0000001192092896,
				1.0000001192092896
			],
			"min":[
				-1.0000001192092896,
				-1.0000001192092896,
				-1.0000001192092896
			],
			"type":"VEC3"
		},
		{
			"bufferView":32,
			"componentType":5126,
			"count":768,
			"type":"VEC3"
		},
		{
			"bufferView":33,
			"componentType":5126,
			"count":768,
			"type":"VEC2"
		},
		{
			"bufferView":34,
			"componentType":5126,
			"count":768,
			"type":"VEC4"
		},
		{
			"bufferView":35,
			"componentType":5126,
			"count":6216,
			"max":[
				1.0000001192092896,
				1.0000001192092896,
				1.0000001192092896
			],
			"min":[
				-1.0000001192092896,
				-1.0000001192092896,
				-1.0000001192092896
			],
			"type":"VEC3"
		},
		{
			"bufferView":36,
			"componentType":5126,
			"count":6216,
			"type":"VEC3"
		},
		{
			"bufferView":37,
			"componentType":5126,
			"count":6216,
			"type":"VEC2"
		},
		{
			"bufferView":38,
			"componentType":5126,
			"count":6216,
			"type":"VEC4"
		},
		{
			"bufferView":39,
			"componentType":5126,
			"count":768,
			"max":[
				1.0000001192092896,
				1.0000001192092896,
				1.0000001192092896
			],
			"min":[
				-1.0000001192092896,
				-1.0000001192092896,
				-1.0000001192092896
			],
			"type":"VEC3"
		},
		{
			"bufferView":40,
			"componentType":5126,
			"count":768,
			"type":"VEC3"
		},
		{
			"bufferView":41,
			"componentType":5126,
			"count":768,
			"type":"VEC2"
		},
		{
			"bufferView":42,
			"componentType":5126,
			"count":768,
			"type":"VEC4"
		},
		{
			"bufferView":43,
			"componentType":5126,
			"count":6216,
			"max":[
				1.0000001192092896,
				1.0000001192092896,
				1.0000001192092896
			],
			"min":[
				-1.0000001192092896,
				-1.0000001192092896,
				-1.0000001192092896
			],
			"type":"VEC3"
		},
		{
			"bufferView":44,
			"componentType":5126,
			"count":6216,
			"type":"VEC3"
		},
		{
			"bufferView":45,
			"componentType":5126,
			"count":6216,
			"type":"VEC2"
		},
		{
			"bufferView":46,
			"componentType":5126,
			"count":6216,
			"type":"VEC4"
		},
		{
			"bufferView":47,
			"componentType":5126,
			"count":768,
			"max":[
				1.0000001192092896,
				1.0000001192092896,
				1.0000001192092896
			],
			"min":[
				-1.0000001192092896,
				-1.0000001192092896,
				-1.0000001192092896
			],
			"type":"VEC3"
		},
		{
			"bufferView":48,
			"componentType":5126,
			"count":768,
			"type":"VEC3"
		},
		{
			"bufferView":49,
			"componentType":5126,
			"count":768,
			"type":"VEC2"
		},
		{
			"bufferView":50,
			"componentType":5126,
			"count":768,
			"type":"VEC4"
		},
		{
			"bufferView":51,
			"componentType":5126,
			"count":6216,
			"max":[
				1.0000001192092896,
				1.0000001192092896,
				1.0000001192092896
			],
			"min":[
				-1.0000001192092896,
				-1.0000001192092896,
				-1.0000001192092896
			],
			"type":"VEC3"
		},
		{
			"bufferView":52,
			"componentType":5126,
			"count":6216,
			"type":"VEC3"
		},
		{
			"bufferView":53,
			"componentType":5126,
			"count":6216,
			"type":"VEC2"
		},
		{
			"bufferView":54,
			"componentType":5126,
			"count":6216,
			"type":"VEC4"
		}
	],
	"bufferViews":[
		{
			"buffer":0,
			"byteLength":9216,
			"byteOffset":0,
			"target":34962
		},
		{
			"buffer":0,
			"byteLength":9216,
			"byteOffset":9216,
			"target":34962
		},
		{
			"buffer":0,
			"byteLength":6144,
			"byteOffset":18432,
			"target":34962
		},
		{
			"buffer":0,
			"byteLength":12288,
			"byteOffset":24576,
			"target":34962
		},
		{
			"buffer":0,
			"byteLength":5412,
			"byteOffset":36864,
			"target":34963
		},
		{
			"buffer":0,
			"byteLength":74592,
			"byteOffset":42276,
			"target":34962
		},
		{
			"buffer":0,
			"byteLength":74592,
			"byteOffset":116868,
			"target":34962
		},
		{
			"buffer":0,
			"byteLength":49728,
			"byteOffset":191460,
			"target":34962
		},
		{
			"buffer":0,
			"byteLength":99456,
			"byteOffset":241188,
			"target":34962
		},
		{
			"buffer":0,
			"byteLength":60480,
			"byteOffset":340644,
			"target":34963
		},
		{
			"buffer":0,
			"byteLength":48,
			"byteOffset":401124,
			"target":34962
		},
		{
			"buffer":0,
			"byteLength":48,
			"byteOffset":401172,
			"target":34962
		},
		{
			"buffer":0,
			"byteLength":32,
			"byteOffset":401220,
			"target":34962
		},
		{
			"buffer":0,
			"byteLength":64,
			"byteOffset":401252,
			"target":34962
		},
		{
			"buffer":0,
			"byteLength":12,
			"byteOffset":401316,
			"target":34963
		},
		{
			"buffer":0,
			"byteLength":9216,
			"byteOffset":401328,
			"target":34962
		},
		{
			"buffer":0,
			"byteLength":9216,
			"byteOffset":410544,
			"target":34962
		},
		{
			"buffer":0,
			"byteLength":6144,
			"byteOffset":419760,
			"target":34962
		},
		{
			"buffer":0,
			"byteLength":12288,
			"byteOffset":425904,
			"target":34962
		},
		{
			"buffer":0,
			"byteLength":74592,
			"byteOffset":438192,
			"target":34962
		},
		{
			"buffer":0,
			"byteLength":74592,
			"byteOffset":512784,
			"target":34962
		},
		{
			"buffer":0,
			"byteLength":49728,
			"byteOffset":587376,
			"target":34962
		},
		{
			"buffer":0,
			"byteLength":99456,
			"byteOffset":637104,
			"target":34962
		},
		{
			"buffer":0,
			"byteLength":9216,
			"byteOffset":736560,
			"target":34962
		},
		{
			"buffer":0,
			"byteLength":9216,
			"byteOffset":745776,
			"target":34962
		},
		{
			"buffer":0,
			"byteLength":6144,
			"byteOffset":754992,
			"target":34962
		},
		{
			"buffer":0,
			"byteLength":12288,
			"byteOffset":761136,
			"target":34962
		},
		{
			"buffer":0,
			"byteLength":74592,
			"byteOffset":773424,
			"target":34962
		},
		{
			"buffer":0,
			"byteLength":74592,
			"byteOffset":848016,
			"target":34962
		},
		{
			"buffer":0,
			"byteLength":49728,
			"byteOffset":922608,
			"target":34962
		},
		{
			"buffer":0,
			"byteLength":99456,
			"byteOffset":972336,
			"target":34962
		},
		{
			"buffer":0,
			"byteLength":9216,
			"byteOffset":1071792,
			"target":34962
		},
		{
			"buffer":0,
			"byteLength":9216,
			"byteOffset":1081008,
			"target":34962
		},
		{
			"buffer":0,
			"byteLength":6144,
			"byteOffset":1090224,
			"target":34962
		},
		{
			"buffer":0,
			"byteLength":12288,
			"byteOffset":1096368,
			"target":34962
		},
		{
			"buffer":0,
			"byteLength":74592,
			"byteOffset":1108656,
			"target":34962
		},
		{
			"buffer":0,
			"byteLength":74592,
			"byteOffset":1183248,
			"target":34962
		},
		{
			"buffer":0,
			"byteLength":49728,
			"byteOffset":1257840,
			"target":34962
		},
		{
			"buffer":0,
			"byteLength":99456,
			"byteOffset":1307568,
			"target":34962
		},
		{
			"buffer":0,
			"byteLength":9216,
			"byteOffset":1407024,
			"target":34962
		},
		{
			"buffer":0,
			"byteLength":9216,
			"byteOffset":1416240,
			"target":34962
		},
		{
			"buffer":0,
			"byteLength":6144,
			"byteOffset":1425456,
			"target":34962
		},
		{
			"buffer":0,
			"byteLength":12288,
			"byteOffset":1431600,
			"target":34962
		},
		{
			"buffer":0,
			"byteLength":74592,
			"byteOffset":1443888,
			"target":34962
		},
		{
			"buffer":0,
			"byteLength":74592,
			"byteOffset":1518480,
			"target":34962
		},
		{
			"buffer":0,
			"byteLength":49728,
			"byteOffset":1593072,
			"target":34962
		},
		{
			"buffer":0,
			"byteLength":99456,
			"byteOffset":1642800,
			"target":34962
		},
		{
			"buffer":0,
			"byteLength":9216,
			"byteOffset":1742256,
			"target":34962
		},
		{
			"buffer":0,
			"byteLength":9216,
			"byteOffset":1751472,
			"target":34962
		},
		{
			"buffer":0,
			"byteLength":6144,
			"byteOffset":1760688,
			"target":34962
		},
		{
			"buffer":0,
			"byteLength":12288,
			"byteOffset":1766832,
			"target":34962
		},
		{
			"buffer":0,
			"byteLength":74592,
			"byteOffset":1779120,
			"target":34962
		},
		{
			"buffer":0,
			"byteLength":74592,
			"byteOffset":1853712,
			"target":34962
		},
		{
			"buffer":0,
			"byteLength":49728,
			"byteOffset":1928304,
			"target":34962
		},
		{
			"buffer":0,
			"byteLength":99456,
			"byteOffset":1978032,
			"target":34962
		}
	],
	"buffers":[
		{
			"byteLength":2077488,
			"uri":"Untitled-35953a487ba06be279506bbf0504f89d.bin"
		}
	]
}
